<mxfile host="app.diagrams.net" agent="Mozilla/5.0 (Windows NT 10.0; Win64; x64) AppleWebKit/537.36 (KHTML, like Gecko) Chrome/130.0.0.0 Safari/537.36" version="24.8.3">
  <diagram name="Página-1" id="-hNQNOBoWdc49GFBCAFE">
    <mxGraphModel dx="1909" dy="949" grid="1" gridSize="10" guides="1" tooltips="1" connect="1" arrows="1" fold="1" page="1" pageScale="1" pageWidth="827" pageHeight="1169" math="0" shadow="0">
      <root>
        <mxCell id="0" />
        <mxCell id="1" parent="0" />
        <mxCell id="eNu-A9OQDc99dVDA0O8h-1" value="Administrador" style="shape=umlActor;verticalLabelPosition=bottom;verticalAlign=top;html=1;outlineConnect=0;" parent="1" vertex="1">
          <mxGeometry x="60" y="70" width="30" height="60" as="geometry" />
        </mxCell>
        <mxCell id="eNu-A9OQDc99dVDA0O8h-3" value="Cidadão" style="shape=umlActor;verticalLabelPosition=bottom;verticalAlign=top;html=1;outlineConnect=0;" parent="1" vertex="1">
          <mxGeometry x="1570" y="40" width="30" height="60" as="geometry" />
        </mxCell>
        <mxCell id="eNu-A9OQDc99dVDA0O8h-4" value="Operador de Coleta&lt;div&gt;&lt;br&gt;&lt;/div&gt;" style="shape=umlActor;verticalLabelPosition=bottom;verticalAlign=top;html=1;outlineConnect=0;" parent="1" vertex="1">
          <mxGeometry x="50" y="960" width="30" height="60" as="geometry" />
        </mxCell>
        <mxCell id="eNu-A9OQDc99dVDA0O8h-5" value="Supervisor de Coleta&lt;div&gt;&lt;br&gt;&lt;/div&gt;" style="shape=umlActor;verticalLabelPosition=bottom;verticalAlign=top;html=1;outlineConnect=0;" parent="1" vertex="1">
          <mxGeometry x="770" y="970" width="30" height="60" as="geometry" />
        </mxCell>
        <mxCell id="vZEjTpDBOFY25wOexT_T-3" value="Cadastrar Supervisor" style="ellipse;whiteSpace=wrap;html=1;" vertex="1" parent="1">
          <mxGeometry x="700" y="310" width="90" height="70" as="geometry" />
        </mxCell>
        <mxCell id="vZEjTpDBOFY25wOexT_T-4" value="Cadastrar Cidadão" style="ellipse;whiteSpace=wrap;html=1;" vertex="1" parent="1">
          <mxGeometry x="1360" y="60" width="90" height="70" as="geometry" />
        </mxCell>
        <mxCell id="vZEjTpDBOFY25wOexT_T-10" value="Editar Supervisor" style="ellipse;whiteSpace=wrap;html=1;" vertex="1" parent="1">
          <mxGeometry x="700" y="390" width="90" height="70" as="geometry" />
        </mxCell>
        <mxCell id="vZEjTpDBOFY25wOexT_T-11" value="Desativar Supervisor" style="ellipse;whiteSpace=wrap;html=1;" vertex="1" parent="1">
          <mxGeometry x="700" y="470" width="90" height="70" as="geometry" />
        </mxCell>
        <mxCell id="vZEjTpDBOFY25wOexT_T-14" value="" style="swimlane;startSize=0;" vertex="1" parent="1">
          <mxGeometry x="314" y="10" width="216" height="270" as="geometry" />
        </mxCell>
        <mxCell id="vZEjTpDBOFY25wOexT_T-8" value="Logar Administrador" style="ellipse;whiteSpace=wrap;html=1;" vertex="1" parent="vZEjTpDBOFY25wOexT_T-14">
          <mxGeometry x="26" y="180" width="90" height="70" as="geometry" />
        </mxCell>
        <mxCell id="vZEjTpDBOFY25wOexT_T-6" value="Editar Administrador" style="ellipse;whiteSpace=wrap;html=1;" vertex="1" parent="vZEjTpDBOFY25wOexT_T-14">
          <mxGeometry x="26" y="100" width="90" height="70" as="geometry" />
        </mxCell>
        <mxCell id="vZEjTpDBOFY25wOexT_T-1" value="Cadastrar Administrador" style="ellipse;whiteSpace=wrap;html=1;" vertex="1" parent="vZEjTpDBOFY25wOexT_T-14">
          <mxGeometry x="26" y="10" width="90" height="70" as="geometry" />
        </mxCell>
        <mxCell id="vZEjTpDBOFY25wOexT_T-17" value="" style="swimlane;startSize=0;" vertex="1" parent="1">
          <mxGeometry x="30" y="270" width="250" height="510" as="geometry" />
        </mxCell>
        <mxCell id="vZEjTpDBOFY25wOexT_T-12" value="Desativar Operador" style="ellipse;whiteSpace=wrap;html=1;" vertex="1" parent="vZEjTpDBOFY25wOexT_T-17">
          <mxGeometry x="60" y="180" width="90" height="70" as="geometry" />
        </mxCell>
        <mxCell id="vZEjTpDBOFY25wOexT_T-9" value="Editar Operador" style="ellipse;whiteSpace=wrap;html=1;" vertex="1" parent="vZEjTpDBOFY25wOexT_T-17">
          <mxGeometry x="60" y="90" width="90" height="70" as="geometry" />
        </mxCell>
        <mxCell id="vZEjTpDBOFY25wOexT_T-2" value="Cadastrar Operador" style="ellipse;whiteSpace=wrap;html=1;" vertex="1" parent="vZEjTpDBOFY25wOexT_T-17">
          <mxGeometry x="60" y="10" width="90" height="70" as="geometry" />
        </mxCell>
      </root>
    </mxGraphModel>
  </diagram>
</mxfile>
